<svg width="18" height="18" viewBox="0 0 18 18" fill="none" xmlns="http://www.w3.org/2000/svg">
<g clip-path="url(#clip0_8338_13008)">
<path d="M17.1398 0.86121C16.6299 0.352107 15.9388 0.0661621 15.2183 0.0661621C14.4977 0.0661621 13.8066 0.352107 13.2968 0.86121L1.09876 13.0592C0.74945 13.4066 0.472483 13.8197 0.283885 14.2748C0.0952868 14.7299 -0.00119848 15.2178 1.12359e-05 15.7105V17.2502C1.12359e-05 17.4491 0.0790289 17.6399 0.219681 17.7805C0.360333 17.9212 0.551099 18.0002 0.750011 18.0002H2.28976C2.78233 18.0016 3.27029 17.9053 3.72538 17.7168C4.18047 17.5283 4.59365 17.2515 4.94101 16.9022L17.1398 4.70346C17.6486 4.19361 17.9344 3.50268 17.9344 2.78233C17.9344 2.06199 17.6486 1.37106 17.1398 0.86121ZM3.88051 15.8417C3.45751 16.2619 2.88598 16.4985 2.28976 16.5002H1.50001V15.7105C1.49925 15.4149 1.55713 15.1221 1.67029 14.849C1.78345 14.576 1.94965 14.3281 2.15926 14.1197L11.4165 4.86246L13.1415 6.58746L3.88051 15.8417ZM16.0785 3.64296L14.199 5.52321L12.474 3.80196L14.3543 1.92171C14.4675 1.80869 14.6019 1.71909 14.7498 1.65802C14.8977 1.59695 15.0562 1.5656 15.2162 1.56578C15.3762 1.56595 15.5346 1.59764 15.6824 1.65903C15.8301 1.72042 15.9644 1.81032 16.0774 1.92358C16.1904 2.03685 16.28 2.17127 16.3411 2.31916C16.4022 2.46705 16.4335 2.62553 16.4333 2.78554C16.4331 2.94554 16.4015 3.10395 16.3401 3.25171C16.2787 3.39947 16.1888 3.53369 16.0755 3.64671L16.0785 3.64296Z" fill="#667085" fill-opacity="0.7"/>
</g>
<defs>
<clipPath id="clip0_8338_13008">
<rect width="18" height="18" fill="white"/>
</clipPath>
</defs>
</svg>
