<svg width="29" height="28" viewBox="0 0 29 28" fill="none" xmlns="http://www.w3.org/2000/svg">
<mask id="mask0_8940_9551" style="mask-type:luminance" maskUnits="userSpaceOnUse" x="0" y="0" width="29" height="28">
<rect x="0.5" width="28" height="28" fill="white"/>
</mask>
<g mask="url(#mask0_8940_9551)">
<path d="M12.4637 6.86505L12.7885 11.695L12.9498 14.1226C12.9515 14.3723 12.9906 14.6203 13.0661 14.8587C13.2608 15.3214 13.7293 15.6154 14.2391 15.5948L22.0058 15.0867C22.3421 15.0813 22.6669 15.207 22.9087 15.4365C23.1102 15.6277 23.2402 15.8779 23.2813 16.1469L23.2951 16.3102C22.9737 20.7607 19.705 24.4728 15.2637 25.431C10.8224 26.3892 6.26811 24.365 4.07343 20.4574C3.44072 19.3221 3.04553 18.0743 2.91105 16.7872C2.85487 16.4061 2.83014 16.0212 2.83708 15.6362C2.83014 10.8648 6.22798 6.73977 10.9843 5.74532C11.5568 5.65617 12.118 5.95923 12.3475 6.48144C12.4069 6.60238 12.4461 6.7319 12.4637 6.86505Z" fill="black"/>
<path opacity="0.4" d="M26.1657 11.4476L26.1575 11.4856L26.1339 11.5409L26.1372 11.6927C26.1251 11.8937 26.0474 12.0872 25.9137 12.2435C25.7742 12.4063 25.5838 12.5171 25.3742 12.5601L25.2463 12.5776L16.2854 13.1583C15.9873 13.1877 15.6905 13.0916 15.469 12.8939C15.2842 12.7291 15.1661 12.5067 15.1327 12.2671L14.5313 3.31915C14.5208 3.2889 14.5208 3.25611 14.5313 3.22584C14.5395 2.9792 14.6481 2.74606 14.8328 2.57852C15.0173 2.41097 15.2628 2.32298 15.514 2.33421C20.8339 2.46955 25.305 6.29501 26.1657 11.4476Z" fill="black"/>
</g>
</svg>
