<svg width="20" height="20" viewBox="0 0 20 20" fill="none" xmlns="http://www.w3.org/2000/svg">
<path d="M1.66406 3.95801C1.66406 3.79225 1.72991 3.63328 1.84712 3.51607C1.96433 3.39886 2.1233 3.33301 2.28906 3.33301H17.7057C17.8715 3.33301 18.0305 3.39886 18.1477 3.51607C18.2649 3.63328 18.3307 3.79225 18.3307 3.95801C18.3307 4.12377 18.2649 4.28274 18.1477 4.39995C18.0305 4.51716 17.8715 4.58301 17.7057 4.58301H2.28906C2.1233 4.58301 1.96433 4.51716 1.84712 4.39995C1.72991 4.28274 1.66406 4.12377 1.66406 3.95801ZM5.18073 6.84967C5.29792 6.73263 5.45677 6.66689 5.6224 6.66689C5.78802 6.66689 5.94687 6.73263 6.06406 6.84967L8.56406 9.34968C8.62547 9.40689 8.67472 9.47589 8.70888 9.55256C8.74304 9.62923 8.76141 9.71199 8.76289 9.79591C8.76437 9.87983 8.74893 9.96318 8.7175 10.041C8.68606 10.1188 8.63928 10.1895 8.57993 10.2489C8.52058 10.3082 8.44988 10.355 8.37206 10.3864C8.29424 10.4179 8.21088 10.4333 8.12696 10.4318C8.04304 10.4304 7.96028 10.412 7.88361 10.3778C7.80695 10.3437 7.73795 10.2944 7.68073 10.233L6.2474 8.79967V15.6247C6.2474 15.7904 6.18155 15.9494 6.06434 16.0666C5.94713 16.1838 5.78816 16.2497 5.6224 16.2497C5.45664 16.2497 5.29766 16.1838 5.18045 16.0666C5.06324 15.9494 4.9974 15.7904 4.9974 15.6247V8.79967L3.56406 10.233C3.44558 10.3434 3.28888 10.4035 3.12696 10.4007C2.96504 10.3978 2.81056 10.3322 2.69604 10.2177C2.58153 10.1032 2.51594 9.94869 2.51308 9.78678C2.51023 9.62486 2.57033 9.46815 2.68073 9.34968L5.18073 6.84967ZM9.58073 7.29134C9.58073 7.12558 9.64658 6.96661 9.76379 6.8494C9.881 6.73219 10.04 6.66634 10.2057 6.66634H17.7057C17.8715 6.66634 18.0305 6.73219 18.1477 6.8494C18.2649 6.96661 18.3307 7.12558 18.3307 7.29134C18.3307 7.4571 18.2649 7.61607 18.1477 7.73328C18.0305 7.85049 17.8715 7.91634 17.7057 7.91634H10.2057C10.04 7.91634 9.881 7.85049 9.76379 7.73328C9.64658 7.61607 9.58073 7.4571 9.58073 7.29134Z" fill="#344054"/>
</svg>
