<svg width="16" height="16" viewBox="0 0 16 16" fill="none" xmlns="http://www.w3.org/2000/svg">
<path d="M10.8889 3.66623V3.08845C10.8889 2.27949 10.8889 1.87501 10.7315 1.56602C10.593 1.29423 10.372 1.07326 10.1002 0.934779C9.79122 0.777344 9.38674 0.777344 8.57778 0.777344H7.42222C6.61326 0.777344 6.20878 0.777344 5.89979 0.934779C5.628 1.07326 5.40703 1.29423 5.26855 1.56602C5.11111 1.87501 5.11111 2.27949 5.11111 3.08845V3.66623M6.55556 7.63845V11.2496M9.44444 7.63845V11.2496M1.5 3.66623H14.5M13.0556 3.66623V11.7551C13.0556 12.9686 13.0556 13.5753 12.8194 14.0388C12.6117 14.4465 12.2802 14.7779 11.8725 14.9856C11.4091 15.2218 10.8023 15.2218 9.58889 15.2218H6.41111C5.19766 15.2218 4.59094 15.2218 4.12747 14.9856C3.71978 14.7779 3.38832 14.4465 3.1806 14.0388C2.94444 13.5753 2.94444 12.9686 2.94444 11.7551V3.66623" stroke="#667085" stroke-opacity="0.7" strokeWidth="1.44444" strokeLinecap="round" strokeLinejoin="round"/>
</svg>
