<svg width="17" height="12" viewBox="0 0 17 12" fill="none" xmlns="http://www.w3.org/2000/svg">
<path d="M16.0223 5.53538C15.3995 3.96298 14.3133 2.61713 12.9078 1.67641C11.5024 0.735696 9.84405 0.244594 8.15297 0.268274C6.4619 0.244594 4.8036 0.735696 3.39812 1.67641C1.99265 2.61713 0.906453 3.96298 0.28367 5.53538C0.217943 5.71355 0.217943 5.90932 0.28367 6.08748C0.906453 7.65988 1.99265 9.00574 3.39812 9.94645C4.8036 10.8872 6.4619 11.3783 8.15297 11.3546C9.84405 11.3783 11.5024 10.8872 12.9078 9.94645C14.3133 9.00574 15.3995 7.65988 16.0223 6.08748C16.088 5.90932 16.088 5.71355 16.0223 5.53538ZM8.15297 9.77083C6.83552 9.79216 5.54042 9.42901 4.42613 8.7258C3.31184 8.02259 2.42669 7.00983 1.87899 5.81143C2.42669 4.61303 3.31184 3.60027 4.42613 2.89706C5.54042 2.19386 6.83552 1.8307 8.15297 1.85203C9.47043 1.8307 10.7655 2.19386 11.8798 2.89706C12.9941 3.60027 13.8793 4.61303 14.427 5.81143C13.8793 7.00983 12.9941 8.02259 11.8798 8.7258C10.7655 9.42901 9.47043 9.79216 8.15297 9.77083Z" fill="#667085" fill-opacity="0.7"/>
<path d="M8.1519 2.64636C7.52542 2.64636 6.91301 2.83213 6.39212 3.18019C5.87122 3.52824 5.46523 4.02294 5.22549 4.60172C4.98575 5.18051 4.92302 5.81739 5.04524 6.43183C5.16746 7.04627 5.46914 7.61067 5.91212 8.05366C6.35511 8.49664 6.9195 8.79832 7.53394 8.92054C8.14838 9.04276 8.78526 8.98003 9.36405 8.74029C9.94284 8.50055 10.4375 8.09456 10.7856 7.57366C11.1336 7.05276 11.3194 6.44036 11.3194 5.81388C11.3185 4.97407 10.9845 4.16891 10.3907 3.57508C9.79686 2.98125 8.9917 2.64724 8.1519 2.64636ZM8.1519 7.39764C7.83866 7.39764 7.53245 7.30475 7.27201 7.13073C7.01156 6.9567 6.80856 6.70935 6.68869 6.41996C6.56882 6.13057 6.53746 5.81212 6.59857 5.5049C6.65968 5.19769 6.81052 4.91549 7.03201 4.69399C7.2535 4.4725 7.5357 4.32166 7.84292 4.26055C8.15014 4.19944 8.46858 4.23081 8.75797 4.35068C9.04737 4.47055 9.29472 4.67354 9.46874 4.93399C9.64277 5.19444 9.73566 5.50064 9.73566 5.81388C9.73517 6.23377 9.56816 6.63633 9.27125 6.93324C8.97434 7.23014 8.57179 7.39716 8.1519 7.39764Z" fill="#667085" fill-opacity="0.7"/>
</svg>
