<svg width="194" height="40" viewBox="0 0 194 40" fill="none" xmlns="http://www.w3.org/2000/svg">
<rect width="40" height="40" rx="14" fill="black"/>
<path d="M19.9998 23H20.9998C22.0998 23 22.9998 22.1 22.9998 21V11H13.9998C12.4998 11 11.1898 11.83 10.5098 13.05" stroke="white" strokeWidth="1.5" strokeLinecap="round" strokeLinejoin="round"/>
<path d="M10 26C10 27.66 11.34 29 13 29H14C14 27.9 14.9 27 16 27C17.1 27 18 27.9 18 29H22C22 27.9 22.9 27 24 27C25.1 27 26 27.9 26 29H27C28.66 29 30 27.66 30 26V23H27C26.45 23 26 22.55 26 22V19C26 18.45 26.45 18 27 18H28.29L26.58 15.01C26.22 14.39 25.56 14 24.84 14H23V21C23 22.1 22.1 23 21 23H20" stroke="white" strokeWidth="1.5" strokeLinecap="round" strokeLinejoin="round"/>
<path d="M16 31C17.1046 31 18 30.1046 18 29C18 27.8954 17.1046 27 16 27C14.8954 27 14 27.8954 14 29C14 30.1046 14.8954 31 16 31Z" stroke="white" strokeWidth="1.5" strokeLinecap="round" strokeLinejoin="round"/>
<path d="M24 31C25.1046 31 26 30.1046 26 29C26 27.8954 25.1046 27 24 27C22.8954 27 22 27.8954 22 29C22 30.1046 22.8954 31 24 31Z" stroke="white" strokeWidth="1.5" strokeLinecap="round" strokeLinejoin="round"/>
<path d="M30 21V23H27C26.45 23 26 22.55 26 22V19C26 18.45 26.45 18 27 18H28.29L30 21Z" stroke="white" strokeWidth="1.5" strokeLinecap="round" strokeLinejoin="round"/>
<path d="M10 17H16" stroke="white" strokeWidth="1.5" strokeLinecap="round" strokeLinejoin="round"/>
<path d="M10 20H14" stroke="white" strokeWidth="1.5" strokeLinecap="round" strokeLinejoin="round"/>
<path d="M10 23H12" stroke="white" strokeWidth="1.5" strokeLinecap="round" strokeLinejoin="round"/>
<path d="M66.6602 19.8789H73.457V28.7617C72.5586 29.0586 71.625 29.2969 70.6562 29.4766C69.6875 29.6484 68.5898 29.7344 67.3633 29.7344C65.6602 29.7344 64.2148 29.3984 63.0273 28.7266C61.8398 28.0547 60.9375 27.0625 60.3203 25.75C59.7031 24.4375 59.3945 22.8242 59.3945 20.9102C59.3945 19.1133 59.7383 17.5586 60.4258 16.2461C61.1211 14.9336 62.1328 13.918 63.4609 13.1992C64.7969 12.4805 66.4258 12.1211 68.3477 12.1211C69.2539 12.1211 70.1484 12.2188 71.0312 12.4141C71.9141 12.6094 72.7148 12.8633 73.4336 13.1758L72.2266 16.082C71.7031 15.8164 71.1055 15.5938 70.4336 15.4141C69.7617 15.2344 69.0586 15.1445 68.3242 15.1445C67.2695 15.1445 66.3516 15.3867 65.5703 15.8711C64.7969 16.3555 64.1953 17.0352 63.7656 17.9102C63.3438 18.7773 63.1328 19.8008 63.1328 20.9805C63.1328 22.0977 63.2852 23.0898 63.5898 23.957C63.8945 24.8164 64.375 25.4922 65.0312 25.9844C65.6875 26.4688 66.543 26.7109 67.5977 26.7109C68.1133 26.7109 68.5469 26.6875 68.8984 26.6406C69.2578 26.5859 69.5938 26.5312 69.9062 26.4766V22.9023H66.6602V19.8789ZM87.6602 24.7422C87.6602 25.7578 87.4141 26.6406 86.9219 27.3906C86.4297 28.1406 85.7109 28.7188 84.7656 29.125C83.8281 29.5312 82.6875 29.7344 81.3438 29.7344C80.75 29.7344 80.168 29.6953 79.5977 29.6172C79.0352 29.5391 78.4922 29.4258 77.9688 29.2773C77.4531 29.1211 76.9609 28.9297 76.4922 28.7031V25.3281C77.3047 25.6875 78.1484 26.0117 79.0234 26.3008C79.8984 26.5898 80.7656 26.7344 81.625 26.7344C82.2188 26.7344 82.6953 26.6562 83.0547 26.5C83.4219 26.3438 83.6875 26.1289 83.8516 25.8555C84.0156 25.582 84.0977 25.2695 84.0977 24.918C84.0977 24.4883 83.9531 24.1211 83.6641 23.8164C83.375 23.5117 82.9766 23.2266 82.4688 22.9609C81.9688 22.6953 81.4023 22.4102 80.7695 22.1055C80.3711 21.918 79.9375 21.6914 79.4688 21.4258C79 21.1523 78.5547 20.8203 78.1328 20.4297C77.7109 20.0391 77.3633 19.5664 77.0898 19.0117C76.8242 18.4492 76.6914 17.7773 76.6914 16.9961C76.6914 15.9727 76.9258 15.0977 77.3945 14.3711C77.8633 13.6445 78.5312 13.0898 79.3984 12.707C80.2734 12.3164 81.3047 12.1211 82.4922 12.1211C83.3828 12.1211 84.2305 12.2266 85.0352 12.4375C85.8477 12.6406 86.6953 12.9375 87.5781 13.3281L86.4062 16.1523C85.6172 15.832 84.9102 15.5859 84.2852 15.4141C83.6602 15.2344 83.0234 15.1445 82.375 15.1445C81.9219 15.1445 81.5352 15.2188 81.2148 15.3672C80.8945 15.5078 80.6523 15.7109 80.4883 15.9766C80.3242 16.2344 80.2422 16.5352 80.2422 16.8789C80.2422 17.2852 80.3594 17.6289 80.5938 17.9102C80.8359 18.1836 81.1953 18.4492 81.6719 18.707C82.1562 18.9648 82.7578 19.2656 83.4766 19.6094C84.3516 20.0234 85.0977 20.457 85.7148 20.9102C86.3398 21.3555 86.8203 21.8828 87.1562 22.4922C87.4922 23.0938 87.6602 23.8438 87.6602 24.7422ZM104.805 29.5H101.184V22.1055H94.3984V29.5H90.7656V12.3672H94.3984V19.082H101.184V12.3672H104.805V29.5ZM109.141 29.5V12.3672H112.773V29.5H109.141ZM122.559 12.3672C124.77 12.3672 126.383 12.8438 127.398 13.7969C128.414 14.7422 128.922 16.0469 128.922 17.7109C128.922 18.4609 128.809 19.1797 128.582 19.8672C128.355 20.5469 127.984 21.1523 127.469 21.6836C126.961 22.2148 126.281 22.6367 125.43 22.9492C124.578 23.2539 123.527 23.4062 122.277 23.4062H120.719V29.5H117.086V12.3672H122.559ZM122.371 15.3438H120.719V20.4297H121.914C122.594 20.4297 123.184 20.3398 123.684 20.1602C124.184 19.9805 124.57 19.6992 124.844 19.3164C125.117 18.9336 125.254 18.4414 125.254 17.8398C125.254 16.9961 125.02 16.3711 124.551 15.9648C124.082 15.5508 123.355 15.3438 122.371 15.3438Z" fill="black"/>
</svg>
