<svg width="20" height="20" viewBox="0 0 20 20" fill="none" xmlns="http://www.w3.org/2000/svg">
<path fillRule="evenodd" clipRule="evenodd" d="M4.9987 3.54102C3.73305 3.54102 2.70703 4.56703 2.70703 5.83268C2.70703 7.09834 3.73305 8.12435 4.9987 8.12435C6.26435 8.12435 7.29036 7.09834 7.29036 5.83268C7.29036 4.56703 6.26435 3.54102 4.9987 3.54102ZM3.95703 5.83268C3.95703 5.25739 4.4234 4.79102 4.9987 4.79102C5.57399 4.79102 6.04036 5.25739 6.04036 5.83268C6.04036 6.40798 5.57399 6.87435 4.9987 6.87435C4.4234 6.87435 3.95703 6.40798 3.95703 5.83268Z" fill="#1E1E1E"/>
<path d="M9.9987 5.20768C9.65352 5.20768 9.3737 5.4875 9.3737 5.83268C9.3737 6.17786 9.65352 6.45768 9.9987 6.45768L16.6654 6.45768C17.0105 6.45768 17.2904 6.17786 17.2904 5.83268C17.2904 5.48751 17.0105 5.20768 16.6654 5.20768L9.9987 5.20768Z" fill="#1E1E1E"/>
<path fillRule="evenodd" clipRule="evenodd" d="M14.9987 11.8743C13.733 11.8743 12.707 12.9004 12.707 14.166C12.707 15.4317 13.733 16.4577 14.9987 16.4577C16.2644 16.4577 17.2904 15.4317 17.2904 14.166C17.2904 12.9004 16.2644 11.8743 14.9987 11.8743ZM13.957 14.166C13.957 13.5907 14.4234 13.1243 14.9987 13.1243C15.574 13.1243 16.0404 13.5907 16.0404 14.166C16.0404 14.7413 15.574 15.2077 14.9987 15.2077C14.4234 15.2077 13.957 14.7413 13.957 14.166Z" fill="#1E1E1E"/>
<path d="M3.33203 13.541C2.98685 13.541 2.70703 13.8208 2.70703 14.166C2.70703 14.5112 2.98685 14.791 3.33203 14.791L9.9987 14.791C10.3439 14.791 10.6237 14.5112 10.6237 14.166C10.6237 13.8208 10.3439 13.541 9.9987 13.541L3.33203 13.541Z" fill="#1E1E1E"/>
</svg>
