<svg width="12" height="12" viewBox="0 0 12 12" fill="none" xmlns="http://www.w3.org/2000/svg">
<path d="M8.98549 0.876072C9.48918 0.873825 9.83525 0.872849 10.0989 0.901638C10.1845 0.910994 10.2561 0.92305 10.3169 0.937623L5.00271 6.25186C4.85627 6.3983 4.85627 6.63574 5.00271 6.78219C5.14916 6.92863 5.3866 6.92863 5.53304 6.78219L10.8473 1.46795C10.8618 1.52876 10.8739 1.60036 10.8833 1.68603C10.912 1.94965 10.9111 2.29572 10.9088 2.7994L10.9033 4.04047C10.9024 4.24758 11.0695 4.41622 11.2766 4.41714C11.4837 4.41807 11.6524 4.25093 11.6533 4.04382L11.6589 2.7804C11.6611 2.30454 11.6628 1.91562 11.6288 1.60461C11.5935 1.28119 11.5157 0.99486 11.325 0.748469C11.2838 0.695132 11.2392 0.64449 11.1917 0.59682C11.143 0.547937 11.0911 0.502183 11.0364 0.459855C10.79 0.269174 10.5037 0.191389 10.1803 0.156071C9.86928 0.122106 9.48036 0.123848 9.00451 0.12598L7.74108 0.131617C7.53397 0.132541 7.36683 0.301182 7.36775 0.508286C7.36868 0.715391 7.53732 0.882534 7.74442 0.88161L8.98549 0.876072Z" fill="#1E1E1E"/>
<path d="M6.50449 1.72103C6.20168 1.7174 5.86813 1.7174 5.50162 1.7174H5.47737C4.55911 1.71739 3.83931 1.71739 3.26824 1.77926C2.68547 1.8424 2.21328 1.97356 1.81012 2.26647C1.56605 2.4438 1.35141 2.65844 1.17408 2.90252C0.881162 3.30568 0.750003 3.77787 0.686864 4.36064C0.624993 4.9317 0.624996 5.6515 0.625 6.56977V6.61502C0.624996 7.53329 0.624993 8.25309 0.686864 8.82416C0.750003 9.40693 0.881162 9.87912 1.17408 10.2823C1.3514 10.5264 1.56604 10.741 1.81012 10.9183C2.21328 11.2112 2.68547 11.3424 3.26824 11.4055C3.8393 11.4674 4.55908 11.4674 5.47733 11.4674H5.52264C6.44088 11.4674 7.1607 11.4674 7.73176 11.4055C8.31453 11.3424 8.78672 11.2112 9.18988 10.9183C9.43396 10.741 9.6486 10.5264 9.82592 10.2823C10.1188 9.87912 10.25 9.40693 10.3131 8.82416C10.375 8.2531 10.375 7.53332 10.375 6.61507V6.59067C10.375 6.2242 10.375 5.89069 10.3714 5.5879C10.3689 5.38081 10.199 5.21494 9.9919 5.21742C9.78481 5.21991 9.61894 5.3898 9.62142 5.59689C9.62499 5.89477 9.625 6.22405 9.625 6.5924C9.625 7.53818 9.62449 8.2174 9.5675 8.74337C9.51127 9.26233 9.4037 9.58744 9.21916 9.84144C9.08809 10.0218 8.92945 10.1805 8.74904 10.3116C8.49504 10.4961 8.16993 10.6037 7.65098 10.6599C7.125 10.7169 6.44579 10.7174 5.5 10.7174C4.55421 10.7174 3.875 10.7169 3.34902 10.6599C2.83007 10.6037 2.50496 10.4961 2.25096 10.3116C2.07056 10.1805 1.91191 10.0218 1.78084 9.84144C1.5963 9.58744 1.48873 9.26233 1.4325 8.74337C1.37551 8.2174 1.375 7.53818 1.375 6.5924C1.375 5.64661 1.37551 4.96739 1.4325 4.44142C1.48873 3.92246 1.5963 3.59736 1.78084 3.34335C1.91191 3.16295 2.07056 3.00431 2.25096 2.87324C2.50496 2.68869 2.83007 2.58112 3.34902 2.5249C3.875 2.46791 4.55421 2.4674 5.5 2.4674C5.86834 2.4674 6.19762 2.4674 6.49551 2.47097C6.7026 2.47346 6.87249 2.30759 6.87497 2.1005C6.87746 1.8934 6.71159 1.72351 6.50449 1.72103Z" fill="#1E1E1E"/>
</svg>
