<svg width="29" height="28" viewBox="0 0 29 28" fill="none" xmlns="http://www.w3.org/2000/svg">
<path d="M26.1871 12.8297C25.7863 12.2976 24.2971 11.9312 23.6671 10.9736C23.0371 10.016 22.5214 7.94227 20.918 7.14547C19.3145 6.34867 16.2499 6.125 14.4999 6.125C12.7499 6.125 9.68736 6.34375 8.08174 7.14383C6.47611 7.94391 5.9626 10.016 5.3326 10.972C4.7026 11.9279 3.21346 12.2976 2.8126 12.8297C2.41174 13.3618 2.12955 16.7256 2.30127 18.375C2.47299 20.0244 2.79346 21 2.79346 21H7.49658C8.26658 21 8.51705 20.7107 10.0921 20.5625C11.8202 20.3984 13.5155 20.3438 14.4999 20.3438C15.4842 20.3438 17.2342 20.3984 18.9613 20.5625C20.5363 20.7118 20.7949 21 21.5567 21H26.2052C26.2052 21 26.5256 20.0244 26.6974 18.375C26.8691 16.7256 26.5858 13.3618 26.1871 12.8297ZM22.3749 21H25.4374V21.875H22.3749V21ZM3.56236 21H6.62486V21.875H3.56236V21Z" stroke="white" strokeWidth="1.75" strokeLinecap="round" strokeLinejoin="round"/>
<path d="M20.4321 16.9072C20.1089 16.5337 19.0556 16.222 17.6611 16.0131C16.2665 15.8042 15.758 15.75 14.5111 15.75C13.2642 15.75 12.6971 15.8397 11.3605 16.0131C10.024 16.1864 9.02045 16.4949 8.59006 16.9072C7.9442 17.5329 8.8903 18.235 9.63295 18.3204C10.3526 18.4024 11.7915 18.3723 14.5171 18.3723C17.2427 18.3723 18.6815 18.4024 19.4012 18.3204C20.1428 18.2301 21.0211 17.5766 20.4321 16.9072ZM24.1016 13.2918C24.0986 13.2484 24.0796 13.2076 24.0483 13.1774C24.017 13.1471 23.9756 13.1294 23.9321 13.1278C23.2862 13.1048 22.6305 13.1507 21.4673 13.4936C20.8739 13.6669 20.3166 13.9459 19.8223 14.3172C19.6976 14.4146 19.7419 14.6776 19.8983 14.7055C20.8571 14.818 21.8216 14.8746 22.7869 14.875C23.3661 14.875 23.9638 14.711 24.0748 14.1947C24.1314 13.8971 24.1405 13.5923 24.1016 13.2918ZM4.89866 13.2918C4.90172 13.2484 4.92073 13.2076 4.95202 13.1774C4.98331 13.1471 5.02468 13.1294 5.06819 13.1278C5.71405 13.1048 6.36975 13.1507 7.53295 13.4936C8.1264 13.6669 8.68368 13.9459 9.17795 14.3172C9.30264 14.4146 9.25834 14.6776 9.10194 14.7055C8.14317 14.818 7.17868 14.8746 6.21334 14.875C5.6342 14.875 5.03647 14.711 4.92545 14.1947C4.86885 13.8971 4.85981 13.5923 4.89866 13.2918Z" fill="white"/>
<path d="M24.125 10.5H25M4 10.5H4.875M4.76562 11.5391C4.76562 11.5391 7.30039 10.8828 14.5 10.8828C21.6996 10.8828 24.2344 11.5391 24.2344 11.5391" stroke="white" strokeWidth="1.75" strokeLinecap="round" strokeLinejoin="round"/>
</svg>
